<mxfile host="app.diagrams.net" modified="2021-03-17T14:43:00.739Z" agent="5.0 (Windows NT 10.0; Win64; x64) AppleWebKit/537.36 (KHTML, like Gecko) Chrome/89.0.4389.82 Safari/537.36" etag="eoLM8eoVfByvdNCxM5E7" version="14.4.8" type="github">
  <diagram id="kgpKYQtTHZ0yAKxKKP6v" name="Page-1">
    <mxGraphModel dx="1028" dy="548" grid="1" gridSize="10" guides="1" tooltips="1" connect="1" arrows="1" fold="1" page="1" pageScale="1" pageWidth="850" pageHeight="1100" math="0" shadow="0">
      <root>
        <mxCell id="0" />
        <mxCell id="1" parent="0" />
        <mxCell id="3nuBFxr9cyL0pnOWT2aG-5" value=":Elevator button" style="shape=umlLifeline;perimeter=lifelinePerimeter;container=1;collapsible=0;recursiveResize=0;rounded=0;shadow=0;strokeWidth=1;" parent="1" vertex="1">
          <mxGeometry x="240" y="80" width="100" height="440" as="geometry" />
        </mxCell>
        <mxCell id="Od5fCB60lNbBAnic3wPA-53" value="" style="points=[];perimeter=orthogonalPerimeter;rounded=0;shadow=0;strokeWidth=1;" vertex="1" parent="3nuBFxr9cyL0pnOWT2aG-5">
          <mxGeometry x="45" y="70" width="10" height="200" as="geometry" />
        </mxCell>
        <mxCell id="3nuBFxr9cyL0pnOWT2aG-8" value="Orders elevator&#xa;to 1st floor" style="verticalAlign=bottom;endArrow=open;entryX=0;entryY=0;shadow=0;strokeWidth=1;exitX=1.027;exitY=0.05;exitDx=0;exitDy=0;exitPerimeter=0;endFill=0;" parent="1" source="Od5fCB60lNbBAnic3wPA-68" edge="1">
          <mxGeometry relative="1" as="geometry">
            <mxPoint x="115" y="160.0000000000001" as="sourcePoint" />
            <mxPoint x="285" y="160.0000000000001" as="targetPoint" />
          </mxGeometry>
        </mxCell>
        <mxCell id="Od5fCB60lNbBAnic3wPA-3" value=":Elevator &#xa;control" style="shape=umlLifeline;perimeter=lifelinePerimeter;container=1;collapsible=0;recursiveResize=0;rounded=0;shadow=0;strokeWidth=1;" vertex="1" parent="1">
          <mxGeometry x="599" y="80" width="100" height="440" as="geometry" />
        </mxCell>
        <mxCell id="Od5fCB60lNbBAnic3wPA-52" value="" style="points=[];perimeter=orthogonalPerimeter;rounded=0;shadow=0;strokeWidth=1;" vertex="1" parent="Od5fCB60lNbBAnic3wPA-3">
          <mxGeometry x="45" y="70" width="10" height="360" as="geometry" />
        </mxCell>
        <mxCell id="Od5fCB60lNbBAnic3wPA-5" value=":Door &#xa;control" style="shape=umlLifeline;perimeter=lifelinePerimeter;container=1;collapsible=0;recursiveResize=0;rounded=0;shadow=0;strokeWidth=1;" vertex="1" parent="1">
          <mxGeometry x="960" y="80" width="100" height="440" as="geometry" />
        </mxCell>
        <mxCell id="Od5fCB60lNbBAnic3wPA-40" value="" style="points=[];perimeter=orthogonalPerimeter;rounded=0;shadow=0;strokeWidth=1;sketch=0;" vertex="1" parent="Od5fCB60lNbBAnic3wPA-5">
          <mxGeometry x="45" y="200" width="10" height="40" as="geometry" />
        </mxCell>
        <mxCell id="Od5fCB60lNbBAnic3wPA-43" value="" style="points=[];perimeter=orthogonalPerimeter;rounded=0;shadow=0;strokeWidth=1;" vertex="1" parent="Od5fCB60lNbBAnic3wPA-5">
          <mxGeometry x="45" y="380" width="10" height="40" as="geometry" />
        </mxCell>
        <mxCell id="Od5fCB60lNbBAnic3wPA-8" value=":Queue" style="shape=umlLifeline;perimeter=lifelinePerimeter;container=1;collapsible=0;recursiveResize=0;rounded=0;shadow=0;strokeWidth=1;" vertex="1" parent="1">
          <mxGeometry x="420" y="80" width="100" height="440" as="geometry" />
        </mxCell>
        <mxCell id="Od5fCB60lNbBAnic3wPA-51" value="" style="points=[];perimeter=orthogonalPerimeter;rounded=0;shadow=0;strokeWidth=1;" vertex="1" parent="Od5fCB60lNbBAnic3wPA-8">
          <mxGeometry x="45" y="70" width="10" height="250" as="geometry" />
        </mxCell>
        <mxCell id="Od5fCB60lNbBAnic3wPA-10" value="update_orders" style="endArrow=open;html=1;exitX=0.98;exitY=0.153;exitDx=0;exitDy=0;exitPerimeter=0;endFill=0;entryX=-0.011;entryY=0.12;entryDx=0;entryDy=0;entryPerimeter=0;" edge="1" parent="1" source="Od5fCB60lNbBAnic3wPA-53" target="Od5fCB60lNbBAnic3wPA-51">
          <mxGeometry x="-0.034" y="10" width="50" height="50" relative="1" as="geometry">
            <mxPoint x="310" y="180" as="sourcePoint" />
            <mxPoint x="460" y="180" as="targetPoint" />
            <Array as="points">
              <mxPoint x="359" y="180" />
            </Array>
            <mxPoint as="offset" />
          </mxGeometry>
        </mxCell>
        <mxCell id="Od5fCB60lNbBAnic3wPA-11" value="" style="endArrow=open;html=1;endFill=0;entryX=-0.028;entryY=0.111;entryDx=0;entryDy=0;entryPerimeter=0;" edge="1" parent="1" target="Od5fCB60lNbBAnic3wPA-52">
          <mxGeometry width="50" height="50" relative="1" as="geometry">
            <mxPoint x="475" y="190" as="sourcePoint" />
            <mxPoint x="640" y="190" as="targetPoint" />
            <Array as="points">
              <mxPoint x="540" y="190" />
            </Array>
          </mxGeometry>
        </mxCell>
        <mxCell id="Od5fCB60lNbBAnic3wPA-12" value="Order added to queue" style="text;html=1;align=center;verticalAlign=middle;resizable=0;points=[];autosize=1;" vertex="1" parent="1">
          <mxGeometry x="485" y="170" width="130" height="20" as="geometry" />
        </mxCell>
        <mxCell id="Od5fCB60lNbBAnic3wPA-21" value="go_to_floor" style="text;html=1;align=center;verticalAlign=middle;resizable=0;points=[];autosize=1;" vertex="1" parent="1">
          <mxGeometry x="700" y="180" width="80" height="20" as="geometry" />
        </mxCell>
        <mxCell id="Od5fCB60lNbBAnic3wPA-22" value=":Elevator &#xa;" style="shape=umlLifeline;perimeter=lifelinePerimeter;container=1;collapsible=0;recursiveResize=0;rounded=0;shadow=0;strokeWidth=1;glass=0;sketch=0;" vertex="1" parent="1">
          <mxGeometry x="780" y="80" width="100" height="440" as="geometry" />
        </mxCell>
        <mxCell id="Od5fCB60lNbBAnic3wPA-49" value="" style="points=[];perimeter=orthogonalPerimeter;rounded=0;shadow=0;strokeWidth=1;" vertex="1" parent="Od5fCB60lNbBAnic3wPA-22">
          <mxGeometry x="45" y="110" width="10" height="60" as="geometry" />
        </mxCell>
        <mxCell id="Od5fCB60lNbBAnic3wPA-50" value="" style="points=[];perimeter=orthogonalPerimeter;rounded=0;shadow=0;strokeWidth=1;" vertex="1" parent="Od5fCB60lNbBAnic3wPA-22">
          <mxGeometry x="45" y="290" width="10" height="60" as="geometry" />
        </mxCell>
        <mxCell id="Od5fCB60lNbBAnic3wPA-25" value="" style="endArrow=classic;html=1;exitX=1.034;exitY=0.139;exitDx=0;exitDy=0;exitPerimeter=0;entryX=-0.048;entryY=0.166;entryDx=0;entryDy=0;entryPerimeter=0;" edge="1" parent="1" source="Od5fCB60lNbBAnic3wPA-52" target="Od5fCB60lNbBAnic3wPA-49">
          <mxGeometry width="50" height="50" relative="1" as="geometry">
            <mxPoint x="660" y="200" as="sourcePoint" />
            <mxPoint x="820" y="200" as="targetPoint" />
            <Array as="points">
              <mxPoint x="740" y="200" />
            </Array>
          </mxGeometry>
        </mxCell>
        <mxCell id="Od5fCB60lNbBAnic3wPA-27" value="Stop&lt;br&gt;" style="html=1;verticalAlign=bottom;endArrow=block;exitX=1;exitY=0.564;exitDx=0;exitDy=0;exitPerimeter=0;entryX=-0.029;entryY=1;entryDx=0;entryDy=0;entryPerimeter=0;" edge="1" parent="1" target="Od5fCB60lNbBAnic3wPA-49">
          <mxGeometry width="80" relative="1" as="geometry">
            <mxPoint x="654" y="250.24" as="sourcePoint" />
            <mxPoint x="820" y="250" as="targetPoint" />
            <Array as="points">
              <mxPoint x="750" y="250" />
            </Array>
          </mxGeometry>
        </mxCell>
        <mxCell id="Od5fCB60lNbBAnic3wPA-28" value="open_door" style="html=1;verticalAlign=bottom;endArrow=classic;endFill=1;entryX=0.01;entryY=0.002;entryDx=0;entryDy=0;entryPerimeter=0;exitX=1.038;exitY=0.361;exitDx=0;exitDy=0;exitPerimeter=0;" edge="1" parent="1" source="Od5fCB60lNbBAnic3wPA-52" target="Od5fCB60lNbBAnic3wPA-40">
          <mxGeometry x="0.3857" width="80" relative="1" as="geometry">
            <mxPoint x="660" y="280" as="sourcePoint" />
            <mxPoint x="1000" y="280" as="targetPoint" />
            <Array as="points">
              <mxPoint x="710" y="280" />
              <mxPoint x="850" y="280" />
            </Array>
            <mxPoint as="offset" />
          </mxGeometry>
        </mxCell>
        <mxCell id="Od5fCB60lNbBAnic3wPA-29" value="Orders elevator to 4th floor" style="verticalAlign=bottom;endArrow=open;shadow=0;strokeWidth=1;exitX=1.106;exitY=0.8;exitDx=0;exitDy=0;exitPerimeter=0;endFill=0;entryX=-0.035;entryY=0.8;entryDx=0;entryDy=0;entryPerimeter=0;" edge="1" parent="1" source="Od5fCB60lNbBAnic3wPA-68" target="Od5fCB60lNbBAnic3wPA-53">
          <mxGeometry relative="1" as="geometry">
            <mxPoint x="114.79999999999995" y="309.40999999999997" as="sourcePoint" />
            <mxPoint x="280" y="310" as="targetPoint" />
            <Array as="points">
              <mxPoint x="200" y="310" />
            </Array>
          </mxGeometry>
        </mxCell>
        <mxCell id="Od5fCB60lNbBAnic3wPA-30" value="update_orders" style="endArrow=open;html=1;exitX=1.06;exitY=0.953;exitDx=0;exitDy=0;exitPerimeter=0;endFill=0;entryX=-0.032;entryY=0.759;entryDx=0;entryDy=0;entryPerimeter=0;" edge="1" parent="1" source="Od5fCB60lNbBAnic3wPA-53" target="Od5fCB60lNbBAnic3wPA-51">
          <mxGeometry x="-0.034" y="10" width="50" height="50" relative="1" as="geometry">
            <mxPoint x="320" y="340" as="sourcePoint" />
            <mxPoint x="460" y="340" as="targetPoint" />
            <Array as="points">
              <mxPoint x="380" y="340" />
            </Array>
            <mxPoint as="offset" />
          </mxGeometry>
        </mxCell>
        <mxCell id="Od5fCB60lNbBAnic3wPA-34" value="Oder added to queue" style="html=1;verticalAlign=bottom;endArrow=open;exitX=0.98;exitY=0.862;exitDx=0;exitDy=0;exitPerimeter=0;endFill=0;entryX=0.015;entryY=0.601;entryDx=0;entryDy=0;entryPerimeter=0;" edge="1" parent="1" source="Od5fCB60lNbBAnic3wPA-51" target="Od5fCB60lNbBAnic3wPA-52">
          <mxGeometry width="80" relative="1" as="geometry">
            <mxPoint x="480" y="362" as="sourcePoint" />
            <mxPoint x="640" y="366" as="targetPoint" />
          </mxGeometry>
        </mxCell>
        <mxCell id="Od5fCB60lNbBAnic3wPA-35" value="" style="endArrow=classic;html=1;exitX=0.976;exitY=0.631;exitDx=0;exitDy=0;exitPerimeter=0;entryX=-0.05;entryY=0.117;entryDx=0;entryDy=0;entryPerimeter=0;" edge="1" parent="1" source="Od5fCB60lNbBAnic3wPA-52" target="Od5fCB60lNbBAnic3wPA-50">
          <mxGeometry width="50" height="50" relative="1" as="geometry">
            <mxPoint x="663.2" y="210.64" as="sourcePoint" />
            <mxPoint x="820" y="377" as="targetPoint" />
            <Array as="points">
              <mxPoint x="690" y="377" />
              <mxPoint x="740" y="377" />
            </Array>
          </mxGeometry>
        </mxCell>
        <mxCell id="Od5fCB60lNbBAnic3wPA-36" value="go_to_floor" style="text;html=1;align=center;verticalAlign=middle;resizable=0;points=[];autosize=1;" vertex="1" parent="1">
          <mxGeometry x="699" y="350" width="80" height="20" as="geometry" />
        </mxCell>
        <mxCell id="Od5fCB60lNbBAnic3wPA-37" value="Floor reached" style="html=1;verticalAlign=bottom;endArrow=open;entryX=0.494;entryY=0.736;entryDx=0;entryDy=0;entryPerimeter=0;dashed=1;endFill=0;exitX=-0.056;exitY=0.566;exitDx=0;exitDy=0;exitPerimeter=0;" edge="1" parent="1" source="Od5fCB60lNbBAnic3wPA-50" target="Od5fCB60lNbBAnic3wPA-3">
          <mxGeometry width="80" relative="1" as="geometry">
            <mxPoint x="820" y="404" as="sourcePoint" />
            <mxPoint x="590" y="310" as="targetPoint" />
          </mxGeometry>
        </mxCell>
        <mxCell id="Od5fCB60lNbBAnic3wPA-38" value="Stop" style="html=1;verticalAlign=bottom;endArrow=block;exitX=1.013;exitY=0.778;exitDx=0;exitDy=0;exitPerimeter=0;entryX=-0.035;entryY=0.998;entryDx=0;entryDy=0;entryPerimeter=0;" edge="1" parent="1" source="Od5fCB60lNbBAnic3wPA-52" target="Od5fCB60lNbBAnic3wPA-50">
          <mxGeometry width="80" relative="1" as="geometry">
            <mxPoint x="660" y="430" as="sourcePoint" />
            <mxPoint x="820" y="430" as="targetPoint" />
            <Array as="points">
              <mxPoint x="740" y="430" />
            </Array>
          </mxGeometry>
        </mxCell>
        <mxCell id="Od5fCB60lNbBAnic3wPA-39" value="open_door" style="html=1;verticalAlign=bottom;endArrow=block;exitX=0.984;exitY=0.862;exitDx=0;exitDy=0;exitPerimeter=0;entryX=-0.028;entryY=0.026;entryDx=0;entryDy=0;entryPerimeter=0;" edge="1" parent="1" source="Od5fCB60lNbBAnic3wPA-52" target="Od5fCB60lNbBAnic3wPA-43">
          <mxGeometry x="0.3348" y="1" width="80" relative="1" as="geometry">
            <mxPoint x="660" y="450" as="sourcePoint" />
            <mxPoint x="1000" y="450" as="targetPoint" />
            <mxPoint as="offset" />
          </mxGeometry>
        </mxCell>
        <mxCell id="Od5fCB60lNbBAnic3wPA-41" value="" style="endArrow=classic;html=1;entryX=-0.019;entryY=1.009;entryDx=0;entryDy=0;entryPerimeter=0;exitX=1.051;exitY=0.473;exitDx=0;exitDy=0;exitPerimeter=0;" edge="1" parent="1" source="Od5fCB60lNbBAnic3wPA-52" target="Od5fCB60lNbBAnic3wPA-40">
          <mxGeometry width="50" height="50" relative="1" as="geometry">
            <mxPoint x="700" y="310" as="sourcePoint" />
            <mxPoint x="1010" y="321" as="targetPoint" />
            <Array as="points">
              <mxPoint x="770" y="321" />
            </Array>
          </mxGeometry>
        </mxCell>
        <mxCell id="Od5fCB60lNbBAnic3wPA-42" value="close door" style="edgeLabel;html=1;align=center;verticalAlign=middle;resizable=0;points=[];" vertex="1" connectable="0" parent="Od5fCB60lNbBAnic3wPA-41">
          <mxGeometry x="0.1972" y="-2" relative="1" as="geometry">
            <mxPoint x="35" y="-12" as="offset" />
          </mxGeometry>
        </mxCell>
        <mxCell id="Od5fCB60lNbBAnic3wPA-44" value="" style="endArrow=classic;html=1;exitX=1.021;exitY=0.972;exitDx=0;exitDy=0;exitPerimeter=0;entryX=-0.046;entryY=1.007;entryDx=0;entryDy=0;entryPerimeter=0;" edge="1" parent="1" source="Od5fCB60lNbBAnic3wPA-52" target="Od5fCB60lNbBAnic3wPA-43">
          <mxGeometry width="50" height="50" relative="1" as="geometry">
            <mxPoint x="680" y="500" as="sourcePoint" />
            <mxPoint x="990" y="501" as="targetPoint" />
          </mxGeometry>
        </mxCell>
        <mxCell id="Od5fCB60lNbBAnic3wPA-45" value="close door" style="edgeLabel;html=1;align=center;verticalAlign=middle;resizable=0;points=[];" vertex="1" connectable="0" parent="Od5fCB60lNbBAnic3wPA-44">
          <mxGeometry x="0.2962" y="1" relative="1" as="geometry">
            <mxPoint x="-0.5" y="-9" as="offset" />
          </mxGeometry>
        </mxCell>
        <mxCell id="Od5fCB60lNbBAnic3wPA-47" value="" style="endArrow=open;html=1;exitX=-0.044;exitY=0.665;exitDx=0;exitDy=0;exitPerimeter=0;dashed=1;endFill=0;entryX=1.025;entryY=0.222;entryDx=0;entryDy=0;entryPerimeter=0;" edge="1" parent="1" source="Od5fCB60lNbBAnic3wPA-49" target="Od5fCB60lNbBAnic3wPA-52">
          <mxGeometry width="50" height="50" relative="1" as="geometry">
            <mxPoint x="821" y="230" as="sourcePoint" />
            <mxPoint x="660" y="230" as="targetPoint" />
            <Array as="points">
              <mxPoint x="690" y="230" />
            </Array>
          </mxGeometry>
        </mxCell>
        <mxCell id="Od5fCB60lNbBAnic3wPA-48" value="Floor reached" style="text;html=1;align=center;verticalAlign=middle;resizable=0;points=[];autosize=1;" vertex="1" parent="1">
          <mxGeometry x="695" y="210" width="90" height="20" as="geometry" />
        </mxCell>
        <mxCell id="Od5fCB60lNbBAnic3wPA-54" value="Passenger&lt;br&gt;" style="shape=umlActor;verticalLabelPosition=bottom;verticalAlign=top;html=1;" vertex="1" parent="1">
          <mxGeometry x="80" y="50" width="40" height="70" as="geometry" />
        </mxCell>
        <mxCell id="Od5fCB60lNbBAnic3wPA-58" value="" style="endArrow=none;dashed=1;html=1;" edge="1" parent="1" source="Od5fCB60lNbBAnic3wPA-68">
          <mxGeometry width="50" height="50" relative="1" as="geometry">
            <mxPoint x="100" y="520" as="sourcePoint" />
            <mxPoint x="100" y="140" as="targetPoint" />
            <Array as="points" />
          </mxGeometry>
        </mxCell>
        <mxCell id="Od5fCB60lNbBAnic3wPA-68" value="" style="points=[];perimeter=orthogonalPerimeter;rounded=0;shadow=0;strokeWidth=1;" vertex="1" parent="1">
          <mxGeometry x="95" y="150" width="10" height="200" as="geometry" />
        </mxCell>
        <mxCell id="Od5fCB60lNbBAnic3wPA-69" value="" style="endArrow=none;dashed=1;html=1;" edge="1" parent="1" target="Od5fCB60lNbBAnic3wPA-68">
          <mxGeometry width="50" height="50" relative="1" as="geometry">
            <mxPoint x="100" y="520" as="sourcePoint" />
            <mxPoint x="100" y="140" as="targetPoint" />
            <Array as="points" />
          </mxGeometry>
        </mxCell>
        <mxCell id="Od5fCB60lNbBAnic3wPA-72" value="" style="endArrow=classic;html=1;" edge="1" parent="1" target="Od5fCB60lNbBAnic3wPA-40">
          <mxGeometry width="50" height="50" relative="1" as="geometry">
            <mxPoint x="654" y="300" as="sourcePoint" />
            <mxPoint x="1003" y="300" as="targetPoint" />
            <Array as="points">
              <mxPoint x="850" y="300" />
            </Array>
          </mxGeometry>
        </mxCell>
        <mxCell id="Od5fCB60lNbBAnic3wPA-73" value="door_delay" style="edgeLabel;html=1;align=center;verticalAlign=middle;resizable=0;points=[];" vertex="1" connectable="0" parent="Od5fCB60lNbBAnic3wPA-72">
          <mxGeometry x="0.2193" y="-1" relative="1" as="geometry">
            <mxPoint x="-116.94" y="-11" as="offset" />
          </mxGeometry>
        </mxCell>
        <mxCell id="Od5fCB60lNbBAnic3wPA-74" value="" style="endArrow=classic;html=1;exitX=1.029;exitY=0.916;exitDx=0;exitDy=0;exitPerimeter=0;entryX=0.028;entryY=0.496;entryDx=0;entryDy=0;entryPerimeter=0;" edge="1" parent="1" source="Od5fCB60lNbBAnic3wPA-52" target="Od5fCB60lNbBAnic3wPA-43">
          <mxGeometry width="50" height="50" relative="1" as="geometry">
            <mxPoint x="660" y="480" as="sourcePoint" />
            <mxPoint x="1000" y="480" as="targetPoint" />
            <Array as="points">
              <mxPoint x="750" y="480" />
            </Array>
          </mxGeometry>
        </mxCell>
      </root>
    </mxGraphModel>
  </diagram>
</mxfile>
